<svg width="15" height="14" viewBox="0 0 15 14" fill="none" xmlns="http://www.w3.org/2000/svg">
<path id="Icon / magnifyingglass" d="M6.39519 11.2444C7.67916 11.2444 8.86318 10.851 9.83192 10.1954L13.4762 13.6482C13.6454 13.8085 13.8683 13.8886 14.1067 13.8886C14.6064 13.8886 14.9601 13.5244 14.9601 13.0582C14.9601 12.8396 14.8832 12.6284 14.7141 12.4754L11.0928 9.0372C11.854 8.09023 12.3076 6.91745 12.3076 5.64269C12.3076 2.5614 9.6474 0.0410156 6.39519 0.0410156C3.15067 0.0410156 0.482788 2.55412 0.482788 5.64269C0.482788 8.72397 3.14298 11.2444 6.39519 11.2444ZM6.39519 10.0352C3.85801 10.0352 1.75907 8.04653 1.75907 5.64269C1.75907 3.23885 3.85801 1.25022 6.39519 1.25022C8.93237 1.25022 11.0313 3.23885 11.0313 5.64269C11.0313 8.04653 8.93237 10.0352 6.39519 10.0352Z" fill="#C4C4C4"/>
</svg>
