<svg width="100" height="68" viewBox="0 0 100 68" fill="none" xmlns="http://www.w3.org/2000/svg">
<g filter="url(#filter0_d_190_4349)">
<path d="M49.4851 45.4272C48.7787 45.4272 48.1692 45.1994 47.6565 44.7437C47.1438 44.2879 46.8875 43.6499 46.8875 42.8296C46.8875 42.1346 47.1324 41.5365 47.6223 41.0352C48.1122 40.5339 48.7161 40.2832 49.4338 40.2832C50.1516 40.2832 50.7611 40.5339 51.2625 41.0352C51.7751 41.5251 52.0315 42.1232 52.0315 42.8296C52.0315 43.6385 51.7751 44.2765 51.2625 44.7437C50.7611 45.1994 50.1687 45.4272 49.4851 45.4272Z" fill="#D45555"/>
<path d="M27.167 29.8604C27.167 30.0928 27.0964 30.3411 26.9551 30.6055C26.8184 30.8698 26.6064 31.1227 26.3193 31.3643C26.0368 31.6012 25.679 31.7926 25.2461 31.9385C24.8132 32.0843 24.3255 32.1572 23.7832 32.1572C22.6302 32.1572 21.7301 31.8223 21.083 31.1523C20.4359 30.4779 20.1123 29.5755 20.1123 28.4453C20.1123 27.6797 20.2604 27.0029 20.5566 26.415C20.8529 25.8271 21.2812 25.3737 21.8418 25.0547C22.4023 24.7311 23.0723 24.5693 23.8516 24.5693C24.3346 24.5693 24.7767 24.64 25.1777 24.7812C25.5833 24.9225 25.9251 25.1048 26.2031 25.3281C26.4857 25.5514 26.6999 25.7907 26.8457 26.0459C26.9961 26.2965 27.0713 26.5312 27.0713 26.75C27.0713 26.9733 26.987 27.1624 26.8184 27.3174C26.6543 27.4723 26.4538 27.5498 26.2168 27.5498C26.0618 27.5498 25.932 27.5111 25.8271 27.4336C25.7269 27.3516 25.613 27.2217 25.4854 27.0439C25.2575 26.6976 25.0182 26.4378 24.7676 26.2646C24.5215 26.0915 24.207 26.0049 23.8242 26.0049C23.2728 26.0049 22.8285 26.2214 22.4912 26.6543C22.154 27.0827 21.9854 27.6706 21.9854 28.418C21.9854 28.7689 22.0286 29.0924 22.1152 29.3887C22.2018 29.6803 22.3271 29.931 22.4912 30.1406C22.6553 30.3457 22.8535 30.5029 23.0859 30.6123C23.3184 30.7171 23.5736 30.7695 23.8516 30.7695C24.2253 30.7695 24.5443 30.6829 24.8086 30.5098C25.0775 30.3366 25.3145 30.0723 25.5195 29.7168C25.6335 29.5072 25.7565 29.3431 25.8887 29.2246C26.0208 29.1061 26.1826 29.0469 26.374 29.0469C26.6019 29.0469 26.791 29.1335 26.9414 29.3066C27.0918 29.4798 27.167 29.6644 27.167 29.8604ZM33.5176 31.1182C33.0664 31.4691 32.6289 31.7334 32.2051 31.9111C31.7858 32.0843 31.3141 32.1709 30.79 32.1709C30.3115 32.1709 29.89 32.0775 29.5254 31.8906C29.1654 31.6992 28.8874 31.4417 28.6914 31.1182C28.4954 30.7946 28.3975 30.4437 28.3975 30.0654C28.3975 29.555 28.5592 29.1198 28.8828 28.7598C29.2064 28.3997 29.6507 28.1582 30.2158 28.0352C30.3343 28.0078 30.6283 27.9463 31.0977 27.8506C31.5671 27.7549 31.9681 27.6683 32.3008 27.5908C32.638 27.5088 33.0026 27.4108 33.3945 27.2969C33.3717 26.8047 33.2715 26.4447 33.0938 26.2168C32.9206 25.9844 32.5583 25.8682 32.0068 25.8682C31.5329 25.8682 31.1751 25.9342 30.9336 26.0664C30.6966 26.1986 30.4915 26.3968 30.3184 26.6611C30.1497 26.9255 30.029 27.1009 29.9561 27.1875C29.8877 27.2695 29.7373 27.3105 29.5049 27.3105C29.2952 27.3105 29.113 27.2445 28.958 27.1123C28.8076 26.9756 28.7324 26.8024 28.7324 26.5928C28.7324 26.2646 28.8486 25.9456 29.0811 25.6357C29.3135 25.3258 29.6758 25.0706 30.168 24.8701C30.6602 24.6696 31.2731 24.5693 32.0068 24.5693C32.8271 24.5693 33.472 24.6673 33.9414 24.8633C34.4108 25.0547 34.7412 25.36 34.9326 25.7793C35.1286 26.1986 35.2266 26.7546 35.2266 27.4473C35.2266 27.8848 35.2243 28.2562 35.2197 28.5615C35.2197 28.8669 35.2174 29.2064 35.2129 29.5801C35.2129 29.931 35.2699 30.2979 35.3838 30.6807C35.5023 31.0589 35.5615 31.3027 35.5615 31.4121C35.5615 31.6035 35.4704 31.779 35.2881 31.9385C35.1104 32.0934 34.9076 32.1709 34.6797 32.1709C34.4883 32.1709 34.2992 32.082 34.1123 31.9043C33.9255 31.722 33.7272 31.46 33.5176 31.1182ZM33.3945 28.418C33.1211 28.5182 32.7223 28.6253 32.1982 28.7393C31.6787 28.8486 31.3187 28.9307 31.1182 28.9854C30.9176 29.0355 30.7262 29.138 30.5439 29.293C30.3617 29.4434 30.2705 29.6553 30.2705 29.9287C30.2705 30.2113 30.3776 30.4528 30.5918 30.6533C30.806 30.8493 31.0863 30.9473 31.4326 30.9473C31.8018 30.9473 32.1413 30.8675 32.4512 30.708C32.7656 30.5439 32.9958 30.3343 33.1416 30.0791C33.3102 29.7965 33.3945 29.3317 33.3945 28.6846V28.418ZM36.874 24.7471H37.0791V23.626C37.0791 23.3252 37.0859 23.0905 37.0996 22.9219C37.1178 22.7487 37.1634 22.6006 37.2363 22.4775C37.3092 22.3499 37.4141 22.2474 37.5508 22.1699C37.6875 22.0879 37.8402 22.0469 38.0088 22.0469C38.2458 22.0469 38.46 22.1357 38.6514 22.3135C38.779 22.432 38.8587 22.5778 38.8906 22.751C38.9271 22.9196 38.9453 23.1611 38.9453 23.4756V24.7471H39.6289C39.8932 24.7471 40.0938 24.8109 40.2305 24.9385C40.3717 25.0615 40.4424 25.221 40.4424 25.417C40.4424 25.6676 40.3421 25.8431 40.1416 25.9434C39.9456 26.0436 39.6631 26.0938 39.2939 26.0938H38.9453V29.5254C38.9453 29.8171 38.9544 30.0426 38.9727 30.2021C38.9954 30.3571 39.0501 30.4847 39.1367 30.585C39.2279 30.6807 39.3737 30.7285 39.5742 30.7285C39.6836 30.7285 39.8317 30.7103 40.0186 30.6738C40.2054 30.6328 40.3512 30.6123 40.4561 30.6123C40.6064 30.6123 40.7409 30.6738 40.8594 30.7969C40.9824 30.9154 41.0439 31.0635 41.0439 31.2412C41.0439 31.542 40.8799 31.7721 40.5518 31.9316C40.2236 32.0911 39.752 32.1709 39.1367 32.1709C38.5534 32.1709 38.1113 32.0729 37.8105 31.877C37.5098 31.681 37.3115 31.4098 37.2158 31.0635C37.1247 30.7171 37.0791 30.2546 37.0791 29.6758V26.0938H36.833C36.5641 26.0938 36.359 26.0299 36.2178 25.9023C36.0765 25.7747 36.0059 25.613 36.0059 25.417C36.0059 25.221 36.0788 25.0615 36.2246 24.9385C36.375 24.8109 36.5915 24.7471 36.874 24.7471ZM46.9434 28.835H43.293C43.2975 29.2588 43.3818 29.6325 43.5459 29.9561C43.7145 30.2796 43.9355 30.5234 44.209 30.6875C44.487 30.8516 44.7923 30.9336 45.125 30.9336C45.3483 30.9336 45.5511 30.9085 45.7334 30.8584C45.9202 30.8037 46.1003 30.7217 46.2734 30.6123C46.4466 30.4984 46.6061 30.3776 46.752 30.25C46.8978 30.1224 47.0869 29.9492 47.3193 29.7305C47.415 29.6484 47.5518 29.6074 47.7295 29.6074C47.9209 29.6074 48.0758 29.6598 48.1943 29.7646C48.3128 29.8695 48.3721 30.0176 48.3721 30.209C48.3721 30.3776 48.306 30.5758 48.1738 30.8037C48.0417 31.027 47.8411 31.2435 47.5723 31.4531C47.3079 31.6582 46.973 31.8291 46.5674 31.9658C46.1663 32.1025 45.7038 32.1709 45.1797 32.1709C43.9811 32.1709 43.0492 31.8291 42.3838 31.1455C41.7184 30.4619 41.3857 29.5345 41.3857 28.3633C41.3857 27.8118 41.4678 27.3014 41.6318 26.832C41.7959 26.3581 42.0352 25.9525 42.3496 25.6152C42.6641 25.278 43.0514 25.0205 43.5117 24.8428C43.972 24.6605 44.4824 24.5693 45.043 24.5693C45.7721 24.5693 46.3965 24.7243 46.916 25.0342C47.4401 25.3395 47.832 25.736 48.0918 26.2236C48.3516 26.7113 48.4814 27.208 48.4814 27.7139C48.4814 28.1833 48.347 28.4886 48.0781 28.6299C47.8092 28.7666 47.431 28.835 46.9434 28.835ZM43.293 27.7754H46.6768C46.6312 27.1374 46.458 26.6611 46.1572 26.3467C45.861 26.0277 45.4691 25.8682 44.9814 25.8682C44.5166 25.8682 44.1338 26.0299 43.833 26.3535C43.5368 26.6725 43.3568 27.1465 43.293 27.7754ZM56.7324 25.9502V31.3711C56.7324 31.9909 56.6663 32.5241 56.5342 32.9707C56.402 33.4173 56.1901 33.7865 55.8984 34.0781C55.6068 34.3698 55.224 34.5863 54.75 34.7275C54.2806 34.8688 53.695 34.9395 52.9932 34.9395C52.3506 34.9395 51.7764 34.8483 51.2705 34.666C50.7646 34.4883 50.375 34.2559 50.1016 33.9688C49.8281 33.6862 49.6914 33.3945 49.6914 33.0938C49.6914 32.8659 49.7689 32.679 49.9238 32.5332C50.0788 32.3919 50.2656 32.3213 50.4844 32.3213C50.7578 32.3213 50.9971 32.4421 51.2021 32.6836C51.3024 32.8066 51.4049 32.9297 51.5098 33.0527C51.6191 33.1803 51.7376 33.2874 51.8652 33.374C51.9974 33.4652 52.1546 33.5312 52.3369 33.5723C52.5192 33.6178 52.7288 33.6406 52.9658 33.6406C53.4489 33.6406 53.8226 33.5723 54.0869 33.4355C54.3558 33.3034 54.5426 33.1165 54.6475 32.875C54.7568 32.6335 54.8206 32.3737 54.8389 32.0957C54.8571 31.8223 54.8708 31.3802 54.8799 30.7695C54.5928 31.1706 54.2601 31.4759 53.8818 31.6855C53.5081 31.8952 53.0615 32 52.542 32C51.9176 32 51.3708 31.8405 50.9014 31.5215C50.4365 31.2025 50.0788 30.7559 49.8281 30.1816C49.5775 29.6074 49.4521 28.9443 49.4521 28.1924C49.4521 27.6318 49.5273 27.126 49.6777 26.6748C49.8327 26.2236 50.0514 25.8431 50.334 25.5332C50.6165 25.2233 50.9424 24.9909 51.3115 24.8359C51.6807 24.6764 52.0863 24.5967 52.5283 24.5967C53.057 24.5967 53.515 24.6992 53.9023 24.9043C54.2897 25.1048 54.6497 25.4215 54.9824 25.8545V25.6016C54.9824 25.278 55.0622 25.0273 55.2217 24.8496C55.3812 24.6719 55.5863 24.583 55.8369 24.583C56.1969 24.583 56.4362 24.7015 56.5547 24.9385C56.6732 25.1709 56.7324 25.5081 56.7324 25.9502ZM51.3252 28.3154C51.3252 29.0719 51.4893 29.6439 51.8174 30.0312C52.1501 30.4186 52.5785 30.6123 53.1025 30.6123C53.4124 30.6123 53.7041 30.5303 53.9775 30.3662C54.2555 30.1976 54.4811 29.9469 54.6543 29.6143C54.8275 29.277 54.9141 28.8691 54.9141 28.3906C54.9141 27.6296 54.7454 27.0371 54.4082 26.6133C54.0755 26.1895 53.6357 25.9775 53.0889 25.9775C52.5557 25.9775 52.1273 26.1803 51.8037 26.5859C51.4847 26.9915 51.3252 27.568 51.3252 28.3154ZM65.25 28.377C65.25 28.9329 65.1634 29.4456 64.9902 29.915C64.8171 30.3844 64.5664 30.7878 64.2383 31.125C63.9102 31.4622 63.5182 31.722 63.0625 31.9043C62.6068 32.082 62.0941 32.1709 61.5244 32.1709C60.9593 32.1709 60.4512 32.0798 60 31.8975C59.5488 31.7152 59.1569 31.4554 58.8242 31.1182C58.4961 30.7764 58.2454 30.3753 58.0723 29.915C57.9036 29.4502 57.8193 28.9375 57.8193 28.377C57.8193 27.8118 57.9059 27.2946 58.0791 26.8252C58.2523 26.3558 58.5007 25.9548 58.8242 25.6221C59.1478 25.2894 59.5397 25.0342 60 24.8564C60.4603 24.6742 60.9684 24.583 61.5244 24.583C62.0895 24.583 62.6022 24.6742 63.0625 24.8564C63.5228 25.0387 63.917 25.2985 64.2451 25.6357C64.5732 25.973 64.8216 26.374 64.9902 26.8389C65.1634 27.3037 65.25 27.8164 65.25 28.377ZM63.377 28.377C63.377 27.6159 63.2083 27.0234 62.8711 26.5996C62.5384 26.1758 62.0895 25.9639 61.5244 25.9639C61.1598 25.9639 60.8385 26.0596 60.5605 26.251C60.2826 26.4378 60.0684 26.7158 59.918 27.085C59.7676 27.4541 59.6924 27.8848 59.6924 28.377C59.6924 28.8646 59.7653 29.2907 59.9111 29.6553C60.0615 30.0199 60.2734 30.3001 60.5469 30.4961C60.8249 30.6875 61.1507 30.7832 61.5244 30.7832C62.0895 30.7832 62.5384 30.5713 62.8711 30.1475C63.2083 29.7191 63.377 29.1289 63.377 28.377ZM68.5791 29.4775V31.0361C68.5791 31.4144 68.4902 31.6992 68.3125 31.8906C68.1348 32.0775 67.9092 32.1709 67.6357 32.1709C67.3669 32.1709 67.1458 32.0752 66.9727 31.8838C66.7995 31.6924 66.7129 31.4098 66.7129 31.0361V25.8408C66.7129 25.0023 67.016 24.583 67.6221 24.583C67.932 24.583 68.1553 24.681 68.292 24.877C68.4287 25.0729 68.5039 25.3623 68.5176 25.7451C68.7409 25.3623 68.9688 25.0729 69.2012 24.877C69.4382 24.681 69.7526 24.583 70.1445 24.583C70.5365 24.583 70.917 24.681 71.2861 24.877C71.6553 25.0729 71.8398 25.3327 71.8398 25.6562C71.8398 25.8841 71.7601 26.0732 71.6006 26.2236C71.4456 26.3695 71.277 26.4424 71.0947 26.4424C71.0264 26.4424 70.86 26.4014 70.5957 26.3193C70.3359 26.2327 70.1058 26.1895 69.9053 26.1895C69.6318 26.1895 69.4085 26.2624 69.2354 26.4082C69.0622 26.5495 68.9277 26.7614 68.832 27.0439C68.7363 27.3265 68.6702 27.6637 68.6338 28.0557C68.5973 28.443 68.5791 28.917 68.5791 29.4775ZM74.5879 32.4033L74.7588 31.9863L72.4619 26.2031C72.3206 25.8704 72.25 25.6289 72.25 25.4785C72.25 25.319 72.291 25.1709 72.373 25.0342C72.4551 24.8975 72.5667 24.7881 72.708 24.7061C72.8538 24.624 73.0042 24.583 73.1592 24.583C73.4281 24.583 73.6309 24.6696 73.7676 24.8428C73.9043 25.0114 74.0251 25.2552 74.1299 25.5742L75.709 30.168L77.2061 25.8955C77.3245 25.5492 77.4316 25.278 77.5273 25.082C77.623 24.8861 77.7233 24.7539 77.8281 24.6855C77.9375 24.6172 78.0902 24.583 78.2861 24.583C78.4274 24.583 78.5618 24.6217 78.6895 24.6992C78.8216 24.7721 78.9219 24.8724 78.9902 25C79.0632 25.1276 79.0996 25.262 79.0996 25.4033C79.0814 25.4899 79.0518 25.613 79.0107 25.7725C78.9697 25.932 78.9196 26.0938 78.8604 26.2578L76.4268 32.6289C76.2171 33.1895 76.012 33.6292 75.8115 33.9482C75.611 34.2673 75.3444 34.5111 75.0117 34.6797C74.6836 34.8529 74.2393 34.9395 73.6787 34.9395C73.1318 34.9395 72.7217 34.8802 72.4482 34.7617C72.1748 34.6432 72.0381 34.4268 72.0381 34.1123C72.0381 33.8981 72.1019 33.7318 72.2295 33.6133C72.3617 33.4993 72.5553 33.4424 72.8105 33.4424C72.9108 33.4424 73.0088 33.4561 73.1045 33.4834C73.223 33.5107 73.3255 33.5244 73.4121 33.5244C73.6263 33.5244 73.7949 33.4925 73.918 33.4287C74.041 33.3649 74.1504 33.2533 74.2461 33.0938C74.3464 32.9388 74.4603 32.7087 74.5879 32.4033Z" fill="#D45555"/>
</g>
<defs>
<filter id="filter0_d_190_4349" x="0.112305" y="4.04688" width="98.9873" height="63.3804" filterUnits="userSpaceOnUse" color-interpolation-filters="sRGB">
<feFlood flood-opacity="0" result="BackgroundImageFix"/>
<feColorMatrix in="SourceAlpha" type="matrix" values="0 0 0 0 0 0 0 0 0 0 0 0 0 0 0 0 0 0 127 0" result="hardAlpha"/>
<feOffset dy="2"/>
<feGaussianBlur stdDeviation="10"/>
<feComposite in2="hardAlpha" operator="out"/>
<feColorMatrix type="matrix" values="0 0 0 0 0.0352941 0 0 0 0 0.984314 0 0 0 0 0.827451 0 0 0 0.15 0"/>
<feBlend mode="normal" in2="BackgroundImageFix" result="effect1_dropShadow_190_4349"/>
<feBlend mode="normal" in="SourceGraphic" in2="effect1_dropShadow_190_4349" result="shape"/>
</filter>
</defs>
</svg>
