<svg width="20" height="20" viewBox="0 0 20 20" fill="none" xmlns="http://www.w3.org/2000/svg">
<path d="M20 18.0246V10.2947C20.0001 9.75689 19.889 9.22475 19.6735 8.73086C19.458 8.23697 19.1428 7.79172 18.747 7.42239L11.374 0.539971C11.0027 0.19321 10.511 0 10 0C9.48898 0 8.99734 0.19321 8.626 0.539971L1.253 7.42239C0.857224 7.79172 0.541952 8.23697 0.326498 8.73086C0.111043 9.22475 -5.78574e-05 9.75689 2.26035e-08 10.2947V18.0246C2.26035e-08 18.5485 0.210714 19.0509 0.585786 19.4214C0.960859 19.7919 1.46957 20 2 20H18C18.5304 20 19.0391 19.7919 19.4142 19.4214C19.7893 19.0509 20 18.5485 20 18.0246Z" fill="#DEDEDE"/>
</svg>
