<svg width="77" height="68" viewBox="0 0 77 68" fill="none" xmlns="http://www.w3.org/2000/svg">
<g filter="url(#filter0_d_190_4345)">
<path d="M38.5029 45.4272C37.7965 45.4272 37.187 45.1994 36.6743 44.7437C36.1616 44.2879 35.9053 43.6499 35.9053 42.8296C35.9053 42.1346 36.1502 41.5365 36.6401 41.0352C37.13 40.5339 37.7339 40.2832 38.4517 40.2832C39.1694 40.2832 39.779 40.5339 40.2803 41.0352C40.793 41.5251 41.0493 42.1232 41.0493 42.8296C41.0493 43.6385 40.793 44.2765 40.2803 44.7437C39.779 45.1994 39.1865 45.4272 38.5029 45.4272Z" fill="#D45555"/>
<path d="M22.4697 22.9424V25.7109C22.7067 25.4375 22.9368 25.221 23.1602 25.0615C23.388 24.902 23.6387 24.7835 23.9121 24.7061C24.1855 24.624 24.4795 24.583 24.7939 24.583C25.2679 24.583 25.6872 24.6833 26.0518 24.8838C26.4209 25.0843 26.7103 25.376 26.9199 25.7588C27.0521 25.9821 27.141 26.2327 27.1865 26.5107C27.2321 26.7842 27.2549 27.1009 27.2549 27.4609V31.0361C27.2549 31.4098 27.1683 31.6924 26.9951 31.8838C26.8265 32.0752 26.6009 32.1709 26.3184 32.1709C25.7031 32.1709 25.3955 31.7926 25.3955 31.0361V27.8848C25.3955 27.2878 25.3066 26.8298 25.1289 26.5107C24.9512 26.1872 24.6139 26.0254 24.1172 26.0254C23.7845 26.0254 23.4837 26.1211 23.2148 26.3125C22.9505 26.4993 22.7523 26.7568 22.6201 27.085C22.5199 27.363 22.4697 27.8574 22.4697 28.5684V31.0361C22.4697 31.4053 22.3854 31.6878 22.2168 31.8838C22.0527 32.0752 21.8226 32.1709 21.5264 32.1709C20.9111 32.1709 20.6035 31.7926 20.6035 31.0361V22.9424C20.6035 22.5641 20.6833 22.2816 20.8428 22.0947C21.0068 21.9033 21.2347 21.8076 21.5264 21.8076C21.8226 21.8076 22.0527 21.9033 22.2168 22.0947C22.3854 22.2861 22.4697 22.5687 22.4697 22.9424ZM36.0938 28.377C36.0938 28.9329 36.0072 29.4456 35.834 29.915C35.6608 30.3844 35.4102 30.7878 35.082 31.125C34.7539 31.4622 34.362 31.722 33.9062 31.9043C33.4505 32.082 32.9378 32.1709 32.3682 32.1709C31.8031 32.1709 31.2949 32.0798 30.8438 31.8975C30.3926 31.7152 30.0007 31.4554 29.668 31.1182C29.3398 30.7764 29.0892 30.3753 28.916 29.915C28.7474 29.4502 28.6631 28.9375 28.6631 28.377C28.6631 27.8118 28.7497 27.2946 28.9229 26.8252C29.096 26.3558 29.3444 25.9548 29.668 25.6221C29.9915 25.2894 30.3835 25.0342 30.8438 24.8564C31.304 24.6742 31.8122 24.583 32.3682 24.583C32.9333 24.583 33.446 24.6742 33.9062 24.8564C34.3665 25.0387 34.7607 25.2985 35.0889 25.6357C35.417 25.973 35.6654 26.374 35.834 26.8389C36.0072 27.3037 36.0938 27.8164 36.0938 28.377ZM34.2207 28.377C34.2207 27.6159 34.0521 27.0234 33.7148 26.5996C33.3822 26.1758 32.9333 25.9639 32.3682 25.9639C32.0036 25.9639 31.6823 26.0596 31.4043 26.251C31.1263 26.4378 30.9121 26.7158 30.7617 27.085C30.6113 27.4541 30.5361 27.8848 30.5361 28.377C30.5361 28.8646 30.609 29.2907 30.7549 29.6553C30.9053 30.0199 31.1172 30.3001 31.3906 30.4961C31.6686 30.6875 31.9945 30.7832 32.3682 30.7832C32.9333 30.7832 33.3822 30.5713 33.7148 30.1475C34.0521 29.7191 34.2207 29.1289 34.2207 28.377ZM43.7773 28.5137V30.9951C43.7773 31.387 43.6885 31.681 43.5107 31.877C43.333 32.0729 43.0983 32.1709 42.8066 32.1709C42.5241 32.1709 42.2939 32.0729 42.1162 31.877C41.943 31.681 41.8564 31.387 41.8564 30.9951V28.0215C41.8564 27.5521 41.8405 27.1875 41.8086 26.9277C41.7767 26.668 41.6901 26.4561 41.5488 26.292C41.4076 26.1234 41.1842 26.0391 40.8789 26.0391C40.2682 26.0391 39.8649 26.2487 39.6689 26.668C39.4775 27.0872 39.3818 27.6888 39.3818 28.4727V30.9951C39.3818 31.3825 39.293 31.6764 39.1152 31.877C38.9421 32.0729 38.7119 32.1709 38.4248 32.1709C38.1423 32.1709 37.9098 32.0729 37.7275 31.877C37.5498 31.6764 37.4609 31.3825 37.4609 30.9951V25.6562C37.4609 25.3053 37.5407 25.0387 37.7002 24.8564C37.8643 24.6742 38.0785 24.583 38.3428 24.583C38.598 24.583 38.8099 24.6696 38.9785 24.8428C39.1517 25.0114 39.2383 25.2461 39.2383 25.5469V25.7246C39.5618 25.3372 39.9082 25.0524 40.2773 24.8701C40.6465 24.6878 41.0566 24.5967 41.5078 24.5967C41.9772 24.5967 42.3805 24.6901 42.7178 24.877C43.055 25.0638 43.333 25.3464 43.5518 25.7246C43.8662 25.3418 44.2035 25.0592 44.5635 24.877C44.9235 24.6901 45.3223 24.5967 45.7598 24.5967C46.2702 24.5967 46.71 24.6969 47.0791 24.8975C47.4482 25.098 47.724 25.3851 47.9062 25.7588C48.0658 26.096 48.1455 26.627 48.1455 27.3516V30.9951C48.1455 31.387 48.0566 31.681 47.8789 31.877C47.7012 32.0729 47.4665 32.1709 47.1748 32.1709C46.8923 32.1709 46.6598 32.0729 46.4775 31.877C46.2998 31.6764 46.2109 31.3825 46.2109 30.9951V27.8574C46.2109 27.4564 46.1927 27.1351 46.1562 26.8936C46.1243 26.652 46.0332 26.4492 45.8828 26.2852C45.7324 26.1211 45.5046 26.0391 45.1992 26.0391C44.9531 26.0391 44.7184 26.112 44.4951 26.2578C44.2764 26.4036 44.1055 26.5996 43.9824 26.8457C43.8457 27.1602 43.7773 27.7161 43.7773 28.5137ZM55.166 28.835H51.5156C51.5202 29.2588 51.6045 29.6325 51.7686 29.9561C51.9372 30.2796 52.1582 30.5234 52.4316 30.6875C52.7096 30.8516 53.015 30.9336 53.3477 30.9336C53.571 30.9336 53.7738 30.9085 53.9561 30.8584C54.1429 30.8037 54.3229 30.7217 54.4961 30.6123C54.6693 30.4984 54.8288 30.3776 54.9746 30.25C55.1204 30.1224 55.3096 29.9492 55.542 29.7305C55.6377 29.6484 55.7744 29.6074 55.9521 29.6074C56.1436 29.6074 56.2985 29.6598 56.417 29.7646C56.5355 29.8695 56.5947 30.0176 56.5947 30.209C56.5947 30.3776 56.5286 30.5758 56.3965 30.8037C56.2643 31.027 56.0638 31.2435 55.7949 31.4531C55.5306 31.6582 55.1956 31.8291 54.79 31.9658C54.389 32.1025 53.9264 32.1709 53.4023 32.1709C52.2038 32.1709 51.2718 31.8291 50.6064 31.1455C49.9411 30.4619 49.6084 29.5345 49.6084 28.3633C49.6084 27.8118 49.6904 27.3014 49.8545 26.832C50.0186 26.3581 50.2578 25.9525 50.5723 25.6152C50.8867 25.278 51.2741 25.0205 51.7344 24.8428C52.1947 24.6605 52.7051 24.5693 53.2656 24.5693C53.9948 24.5693 54.6191 24.7243 55.1387 25.0342C55.6628 25.3395 56.0547 25.736 56.3145 26.2236C56.5742 26.7113 56.7041 27.208 56.7041 27.7139C56.7041 28.1833 56.5697 28.4886 56.3008 28.6299C56.0319 28.7666 55.6536 28.835 55.166 28.835ZM51.5156 27.7754H54.8994C54.8538 27.1374 54.6807 26.6611 54.3799 26.3467C54.0837 26.0277 53.6917 25.8682 53.2041 25.8682C52.7393 25.8682 52.3564 26.0299 52.0557 26.3535C51.7594 26.6725 51.5794 27.1465 51.5156 27.7754Z" fill="#D45555"/>
</g>
<defs>
<filter id="filter0_d_190_4345" x="0.603516" y="3.80762" width="76.1006" height="63.6196" filterUnits="userSpaceOnUse" color-interpolation-filters="sRGB">
<feFlood flood-opacity="0" result="BackgroundImageFix"/>
<feColorMatrix in="SourceAlpha" type="matrix" values="0 0 0 0 0 0 0 0 0 0 0 0 0 0 0 0 0 0 127 0" result="hardAlpha"/>
<feOffset dy="2"/>
<feGaussianBlur stdDeviation="10"/>
<feComposite in2="hardAlpha" operator="out"/>
<feColorMatrix type="matrix" values="0 0 0 0 0.0352941 0 0 0 0 0.984314 0 0 0 0 0.827451 0 0 0 0.15 0"/>
<feBlend mode="normal" in2="BackgroundImageFix" result="effect1_dropShadow_190_4345"/>
<feBlend mode="normal" in="SourceGraphic" in2="effect1_dropShadow_190_4345" result="shape"/>
</filter>
</defs>
</svg>
