<svg width="22" height="21" viewBox="0 0 22 21" fill="none" xmlns="http://www.w3.org/2000/svg">
<path d="M21.0178 18.9081V10.7993C21.0179 10.2352 20.9011 9.67694 20.6747 9.15884C20.4483 8.64074 20.117 8.17367 19.701 7.78624L11.9528 0.56644C11.5626 0.202681 11.0459 0 10.5089 0C9.97188 0 9.45522 0.202681 9.06498 0.56644L1.31677 7.78624C0.900849 8.17367 0.569533 8.64074 0.343114 9.15884C0.116694 9.67694 -6.08018e-05 10.2352 2.37538e-08 10.7993V18.9081C2.37538e-08 19.4577 0.221437 19.9848 0.615597 20.3734C1.00976 20.7621 1.54435 20.9804 2.10178 20.9804H18.916C19.4735 20.9804 20.0081 20.7621 20.4022 20.3734C20.7964 19.9848 21.0178 19.4577 21.0178 18.9081Z" fill="#DEDEDE"/>
</svg>
