<svg width="96" height="68" viewBox="0 0 96 68" fill="none" xmlns="http://www.w3.org/2000/svg">
<g filter="url(#filter0_d_190_4357)">
<path d="M47.4851 45.4272C46.7787 45.4272 46.1692 45.1994 45.6565 44.7437C45.1438 44.2879 44.8875 43.6499 44.8875 42.8296C44.8875 42.1346 45.1324 41.5365 45.6223 41.0352C46.1122 40.5339 46.7161 40.2832 47.4338 40.2832C48.1516 40.2832 48.7611 40.5339 49.2625 41.0352C49.7751 41.5251 50.0315 42.1232 50.0315 42.8296C50.0315 43.6385 49.7751 44.2765 49.2625 44.7437C48.7611 45.1994 48.1687 45.4272 47.4851 45.4272Z" fill="#D45555"/>
<path d="M29.3669 23.694C30.2509 23.694 30.9615 23.967 31.4989 24.513C32.0449 25.0503 32.3179 25.8043 32.3179 26.775V31H30.4979V27.022C30.4979 26.4587 30.3549 26.0297 30.0689 25.735C29.7829 25.4317 29.3929 25.28 28.8989 25.28C28.4049 25.28 28.0105 25.4317 27.7159 25.735C27.4299 26.0297 27.2869 26.4587 27.2869 27.022V31H25.4669V27.022C25.4669 26.4587 25.3239 26.0297 25.0379 25.735C24.7519 25.4317 24.3619 25.28 23.8679 25.28C23.3652 25.28 22.9665 25.4317 22.6719 25.735C22.3859 26.0297 22.2429 26.4587 22.2429 27.022V31H20.4229V23.798H22.2429V24.669C22.4769 24.3657 22.7759 24.1273 23.1399 23.954C23.5125 23.7807 23.9199 23.694 24.3619 23.694C24.9252 23.694 25.4279 23.8153 25.8699 24.058C26.3119 24.292 26.6542 24.63 26.8969 25.072C27.1309 24.656 27.4689 24.3223 27.9109 24.071C28.3615 23.8197 28.8469 23.694 29.3669 23.694ZM40.9349 23.798L36.4759 34.406H34.5389L36.0989 30.818L33.2129 23.798H35.2539L37.1129 28.829L38.9979 23.798H40.9349ZM43.736 24.838C43.97 24.5087 44.2907 24.2357 44.698 24.019C45.114 23.7937 45.5864 23.681 46.115 23.681C46.7304 23.681 47.285 23.8327 47.779 24.136C48.2817 24.4393 48.676 24.8727 48.962 25.436C49.2567 25.9907 49.404 26.6363 49.404 27.373C49.404 28.1097 49.2567 28.764 48.962 29.336C48.676 29.8993 48.2817 30.337 47.779 30.649C47.285 30.961 46.7304 31.117 46.115 31.117C45.5864 31.117 45.1184 31.0087 44.711 30.792C44.3124 30.5753 43.9874 30.3023 43.736 29.973V34.432H41.916V23.798H43.736V24.838ZM47.545 27.373C47.545 26.9397 47.454 26.567 47.272 26.255C47.0987 25.9343 46.8647 25.6917 46.57 25.527C46.284 25.3623 45.972 25.28 45.634 25.28C45.3047 25.28 44.9927 25.3667 44.698 25.54C44.412 25.7047 44.178 25.9473 43.996 26.268C43.8227 26.5887 43.736 26.9657 43.736 27.399C43.736 27.8323 43.8227 28.2093 43.996 28.53C44.178 28.8507 44.412 29.0977 44.698 29.271C44.9927 29.4357 45.3047 29.518 45.634 29.518C45.972 29.518 46.284 29.4313 46.57 29.258C46.8647 29.0847 47.0987 28.8377 47.272 28.517C47.454 28.1963 47.545 27.815 47.545 27.373ZM50.2586 27.373C50.2586 26.645 50.4016 25.9993 50.6876 25.436C50.9823 24.8727 51.3766 24.4393 51.8706 24.136C52.3733 23.8327 52.9323 23.681 53.5476 23.681C54.0849 23.681 54.5529 23.7893 54.9516 24.006C55.3589 24.2227 55.6839 24.4957 55.9266 24.825V23.798H57.7596V31H55.9266V29.947C55.6926 30.285 55.3676 30.5667 54.9516 30.792C54.5443 31.0087 54.0719 31.117 53.5346 31.117C52.9279 31.117 52.3733 30.961 51.8706 30.649C51.3766 30.337 50.9823 29.8993 50.6876 29.336C50.4016 28.764 50.2586 28.1097 50.2586 27.373ZM55.9266 27.399C55.9266 26.957 55.8399 26.58 55.6666 26.268C55.4933 25.9473 55.2593 25.7047 54.9646 25.54C54.6699 25.3667 54.3536 25.28 54.0156 25.28C53.6776 25.28 53.3656 25.3623 53.0796 25.527C52.7936 25.6917 52.5596 25.9343 52.3776 26.255C52.2043 26.567 52.1176 26.9397 52.1176 27.373C52.1176 27.8063 52.2043 28.1877 52.3776 28.517C52.5596 28.8377 52.7936 29.0847 53.0796 29.258C53.3743 29.4313 53.6863 29.518 54.0156 29.518C54.3536 29.518 54.6699 29.4357 54.9646 29.271C55.2593 29.0977 55.4933 28.855 55.6666 28.543C55.8399 28.2223 55.9266 27.841 55.9266 27.399ZM62.3581 23.681C62.8955 23.681 63.3678 23.7893 63.7751 24.006C64.1825 24.214 64.5031 24.487 64.7371 24.825V23.798H66.5701V31.052C66.5701 31.7193 66.4358 32.313 66.1671 32.833C65.8985 33.3617 65.4955 33.7777 64.9581 34.081C64.4208 34.393 63.7708 34.549 63.0081 34.549C61.9855 34.549 61.1448 34.3107 60.4861 33.834C59.8361 33.3573 59.4678 32.7073 59.3811 31.884H61.1881C61.2835 32.2133 61.4871 32.4733 61.7991 32.664C62.1198 32.8633 62.5055 32.963 62.9561 32.963C63.4848 32.963 63.9138 32.8027 64.2431 32.482C64.5725 32.17 64.7371 31.6933 64.7371 31.052V29.934C64.5031 30.272 64.1781 30.5537 63.7621 30.779C63.3548 31.0043 62.8868 31.117 62.3581 31.117C61.7515 31.117 61.1968 30.961 60.6941 30.649C60.1915 30.337 59.7928 29.8993 59.4981 29.336C59.2121 28.764 59.0691 28.1097 59.0691 27.373C59.0691 26.645 59.2121 25.9993 59.4981 25.436C59.7928 24.8727 60.1871 24.4393 60.6811 24.136C61.1838 23.8327 61.7428 23.681 62.3581 23.681ZM64.7371 27.399C64.7371 26.957 64.6505 26.58 64.4771 26.268C64.3038 25.9473 64.0698 25.7047 63.7751 25.54C63.4805 25.3667 63.1641 25.28 62.8261 25.28C62.4881 25.28 62.1761 25.3623 61.8901 25.527C61.6041 25.6917 61.3701 25.9343 61.1881 26.255C61.0148 26.567 60.9281 26.9397 60.9281 27.373C60.9281 27.8063 61.0148 28.1877 61.1881 28.517C61.3701 28.8377 61.6041 29.0847 61.8901 29.258C62.1848 29.4313 62.4968 29.518 62.8261 29.518C63.1641 29.518 63.4805 29.4357 63.7751 29.271C64.0698 29.0977 64.3038 28.855 64.4771 28.543C64.6505 28.2223 64.7371 27.841 64.7371 27.399ZM75.0427 27.243C75.0427 27.503 75.0254 27.737 74.9907 27.945H69.7257C69.769 28.465 69.951 28.8723 70.2717 29.167C70.5924 29.4617 70.9867 29.609 71.4547 29.609C72.1307 29.609 72.6117 29.3187 72.8977 28.738H74.8607C74.6527 29.4313 74.254 30.0033 73.6647 30.454C73.0754 30.896 72.3517 31.117 71.4937 31.117C70.8004 31.117 70.1764 30.9653 69.6217 30.662C69.0757 30.35 68.6467 29.9123 68.3347 29.349C68.0314 28.7857 67.8797 28.1357 67.8797 27.399C67.8797 26.6537 68.0314 25.9993 68.3347 25.436C68.638 24.8727 69.0627 24.4393 69.6087 24.136C70.1547 23.8327 70.783 23.681 71.4937 23.681C72.1784 23.681 72.7894 23.8283 73.3267 24.123C73.8727 24.4177 74.293 24.838 74.5877 25.384C74.891 25.9213 75.0427 26.541 75.0427 27.243ZM73.1577 26.723C73.149 26.255 72.98 25.8823 72.6507 25.605C72.3214 25.319 71.9184 25.176 71.4417 25.176C70.991 25.176 70.6097 25.3147 70.2977 25.592C69.9944 25.8607 69.808 26.2377 69.7387 26.723H73.1577Z" fill="#D45555"/>
</g>
<defs>
<filter id="filter0_d_190_4357" x="0.422852" y="5.681" width="94.6199" height="61.7462" filterUnits="userSpaceOnUse" color-interpolation-filters="sRGB">
<feFlood flood-opacity="0" result="BackgroundImageFix"/>
<feColorMatrix in="SourceAlpha" type="matrix" values="0 0 0 0 0 0 0 0 0 0 0 0 0 0 0 0 0 0 127 0" result="hardAlpha"/>
<feOffset dy="2"/>
<feGaussianBlur stdDeviation="10"/>
<feComposite in2="hardAlpha" operator="out"/>
<feColorMatrix type="matrix" values="0 0 0 0 0.0352941 0 0 0 0 0.984314 0 0 0 0 0.827451 0 0 0 0.15 0"/>
<feBlend mode="normal" in2="BackgroundImageFix" result="effect1_dropShadow_190_4357"/>
<feBlend mode="normal" in="SourceGraphic" in2="effect1_dropShadow_190_4357" result="shape"/>
</filter>
</defs>
</svg>
