<svg width="30" height="31" viewBox="0 0 30 31" fill="none" xmlns="http://www.w3.org/2000/svg">
<path d="M24.375 3.875H5.625C5.12772 3.875 4.65081 4.07913 4.29917 4.44248C3.94754 4.80583 3.75 5.29864 3.75 5.8125V25.1875C3.75 25.7014 3.94754 26.1942 4.29917 26.5575C4.65081 26.9209 5.12772 27.125 5.625 27.125H24.375C24.8723 27.125 25.3492 26.9209 25.7008 26.5575C26.0525 26.1942 26.25 25.7014 26.25 25.1875V5.8125C26.25 5.29864 26.0525 4.80583 25.7008 4.44248C25.3492 4.07913 24.8723 3.875 24.375 3.875ZM7.5 8.71875H22.5C22.7486 8.71875 22.9871 8.82081 23.1629 9.00249C23.3387 9.18417 23.4375 9.43057 23.4375 9.6875C23.4375 9.94443 23.3387 10.1908 23.1629 10.3725C22.9871 10.5542 22.7486 10.6562 22.5 10.6562H7.5C7.25136 10.6562 7.0129 10.5542 6.83709 10.3725C6.66127 10.1908 6.5625 9.94443 6.5625 9.6875C6.5625 9.43057 6.66127 9.18417 6.83709 9.00249C7.0129 8.82081 7.25136 8.71875 7.5 8.71875ZM7.5 14.5312H11.25C11.4986 14.5312 11.7371 14.6333 11.9129 14.815C12.0887 14.9967 12.1875 15.2431 12.1875 15.5C12.1875 15.7569 12.0887 16.0033 11.9129 16.185C11.7371 16.3667 11.4986 16.4688 11.25 16.4688H7.5C7.25136 16.4688 7.0129 16.3667 6.83709 16.185C6.66127 16.0033 6.5625 15.7569 6.5625 15.5C6.5625 15.2431 6.66127 14.9967 6.83709 14.815C7.0129 14.6333 7.25136 14.5312 7.5 14.5312ZM12.1875 22.2812H7.5C7.25136 22.2812 7.0129 22.1792 6.83709 21.9975C6.66127 21.8158 6.5625 21.5694 6.5625 21.3125C6.5625 21.0556 6.66127 20.8092 6.83709 20.6275C7.0129 20.4458 7.25136 20.3438 7.5 20.3438H12.1875C12.4361 20.3438 12.6746 20.4458 12.8504 20.6275C13.0262 20.8092 13.125 21.0556 13.125 21.3125C13.125 21.5694 13.0262 21.8158 12.8504 21.9975C12.6746 22.1792 12.4361 22.2812 12.1875 22.2812ZM23.2676 17.3515L21.1746 19.1328L21.8121 21.7969C21.8344 21.8895 21.8297 21.9868 21.7986 22.0766C21.7675 22.1664 21.7115 22.2448 21.6375 22.3018C21.5563 22.3637 21.4582 22.3972 21.3574 22.3975C21.275 22.397 21.1941 22.374 21.123 22.3309L18.75 20.8935L16.3805 22.3357C16.3009 22.3841 16.2094 22.4071 16.1172 22.4018C16.0251 22.3966 15.9365 22.3634 15.8626 22.3064C15.7886 22.2494 15.7326 22.1711 15.7015 22.0813C15.6704 21.9915 15.6657 21.8943 15.6879 21.8017L16.3254 19.1377L14.2324 17.3515C14.1605 17.29 14.1079 17.2077 14.0816 17.1151C14.0552 17.0226 14.0562 16.924 14.0844 16.832C14.1126 16.74 14.1667 16.6588 14.2399 16.5989C14.313 16.5389 14.4018 16.5029 14.4949 16.4954L17.2582 16.275L18.3199 13.732C18.3563 13.6454 18.4164 13.5716 18.4928 13.5198C18.5692 13.4679 18.6586 13.4403 18.75 13.4403C18.8414 13.4403 18.9308 13.4679 19.0072 13.5198C19.0836 13.5716 19.1437 13.6454 19.1801 13.732L20.2418 16.275L23.0051 16.4954C23.0982 16.5029 23.187 16.5389 23.2601 16.5989C23.3333 16.6588 23.3874 16.74 23.4156 16.832C23.4438 16.924 23.4448 17.0226 23.4184 17.1151C23.3921 17.2077 23.3395 17.29 23.2676 17.3515Z" fill="#DEDEDE"/>
</svg>
