<svg width="100" height="68" viewBox="0 0 100 68" fill="none" xmlns="http://www.w3.org/2000/svg">
<g filter="url(#filter0_d_190_4353)">
<path d="M49.4851 45.4272C48.7787 45.4272 48.1692 45.1994 47.6565 44.7437C47.1438 44.2879 46.8875 43.6499 46.8875 42.8296C46.8875 42.1346 47.1324 41.5365 47.6223 41.0352C48.1122 40.5339 48.7161 40.2832 49.4338 40.2832C50.1516 40.2832 50.7611 40.5339 51.2625 41.0352C51.7751 41.5251 52.0315 42.1232 52.0315 42.8296C52.0315 43.6385 51.7751 44.2765 51.2625 44.7437C50.7611 45.1994 50.1687 45.4272 49.4851 45.4272Z" fill="#D45555"/>
<path d="M20.1355 25.956H31.0165V27.308H20.1355V25.956ZM24.6985 23.993H26.4275V26.372H24.6985V23.993ZM21.3315 28.127H29.7295V32.196H28.0135V29.492H21.3315V28.127ZM21.4485 23.525H29.8335V24.903H21.4485V23.525ZM21.4485 20.6H29.7295V21.965H23.1775V24.266H21.4485V20.6ZM38.1525 23.876H41.3245V25.267H38.1525V23.876ZM34.8765 21.042H36.2805V22.784C36.2805 25.813 35.2535 28.608 32.9915 29.739L31.9125 28.348C33.9665 27.399 34.8765 25.072 34.8765 22.784V21.042ZM35.2405 21.042H36.6185V22.784C36.6185 25.072 37.4895 27.269 39.4785 28.153L38.4515 29.531C36.1895 28.439 35.2405 25.787 35.2405 22.784V21.042ZM40.4665 20.106H42.1825V32.183H40.4665V20.106ZM52.3345 20.119H54.0765V32.157H52.3345V20.119ZM48.7855 21.367H50.5015C50.5015 25.046 49.2535 28.062 44.9765 30.129L44.0795 28.751C47.5375 27.087 48.7855 24.903 48.7855 21.679V21.367ZM44.7165 21.367H49.6045V22.732H44.7165V21.367ZM55.9995 26.567H66.9065V27.945H55.9995V26.567ZM57.3385 20.353H65.5805V23.616H59.0675V24.916H57.3515V22.394H63.8775V21.666H57.3385V20.353ZM57.3515 24.396H65.8145V25.709H57.3515V24.396ZM60.5885 25.033H62.3175V27.321H60.5885V25.033ZM57.2085 28.621H65.6585V32.118H63.9295V29.986H57.2085V28.621ZM70.6365 21.458H72.0535V22.212C72.0535 24.513 70.9745 26.58 68.6475 27.347L67.7895 25.982C69.7915 25.319 70.6365 23.746 70.6365 22.212V21.458ZM70.9875 21.458H72.3915V22.212C72.3915 23.616 73.1975 24.994 75.1345 25.579L74.3155 26.931C72.0275 26.242 70.9875 24.357 70.9875 22.212V21.458ZM68.2445 20.925H74.7445V22.303H68.2445V20.925ZM75.7065 20.119H77.4355V27.256H75.7065V20.119ZM76.9545 22.888H79.0345V24.305H76.9545V22.888ZM73.5095 27.477C76.0055 27.477 77.5785 28.348 77.5785 29.817C77.5785 31.286 76.0055 32.157 73.5095 32.157C71.0005 32.157 69.4275 31.286 69.4275 29.817C69.4275 28.348 71.0005 27.477 73.5095 27.477ZM73.5095 28.829C71.9755 28.829 71.1435 29.141 71.1435 29.817C71.1435 30.493 71.9755 30.831 73.5095 30.831C75.0435 30.831 75.8625 30.493 75.8625 29.817C75.8625 29.141 75.0435 28.829 73.5095 28.829Z" fill="#D45555"/>
</g>
<defs>
<filter id="filter0_d_190_4353" x="0.135559" y="2.10599" width="98.8989" height="65.3213" filterUnits="userSpaceOnUse" color-interpolation-filters="sRGB">
<feFlood flood-opacity="0" result="BackgroundImageFix"/>
<feColorMatrix in="SourceAlpha" type="matrix" values="0 0 0 0 0 0 0 0 0 0 0 0 0 0 0 0 0 0 127 0" result="hardAlpha"/>
<feOffset dy="2"/>
<feGaussianBlur stdDeviation="10"/>
<feComposite in2="hardAlpha" operator="out"/>
<feColorMatrix type="matrix" values="0 0 0 0 0.0352941 0 0 0 0 0.984314 0 0 0 0 0.827451 0 0 0 0.15 0"/>
<feBlend mode="normal" in2="BackgroundImageFix" result="effect1_dropShadow_190_4353"/>
<feBlend mode="normal" in="SourceGraphic" in2="effect1_dropShadow_190_4353" result="shape"/>
</filter>
</defs>
</svg>
