<svg width="53" height="56" viewBox="0 0 53 56" fill="none" xmlns="http://www.w3.org/2000/svg">
<path d="M7.77494 39.7932C7.47023 39.3554 7.29015 38.9071 7.23468 38.4482C7.16762 37.9872 7.19738 37.5705 7.32397 37.1981L6.50324 37.7694L5.68197 36.5896L11.4271 32.5904C11.9469 32.2285 12.4847 32.0166 13.0406 31.9545C13.6033 31.8877 14.1461 31.982 14.6691 32.2373C15.1873 32.4858 15.6463 32.8973 16.0463 33.4718C16.5795 34.2379 16.841 35.0001 16.8309 35.7585C16.8275 36.5122 16.5419 37.1375 15.9739 37.6344L15.167 36.4751C15.3992 36.1815 15.5042 35.8291 15.4821 35.4181C15.462 34.9955 15.3115 34.5824 15.0306 34.1788C14.7021 33.7069 14.2942 33.4273 13.807 33.34C13.315 33.2459 12.7955 33.3893 12.2483 33.7702L11.3045 34.4272C11.7093 34.4398 12.1231 34.5529 12.5458 34.7663C12.9569 34.9776 13.3124 35.2988 13.6124 35.7296C13.9552 36.2221 14.1463 36.7592 14.1857 37.3409C14.2136 37.9206 14.0885 38.4849 13.8106 39.0337C13.5211 39.5805 13.0925 40.0515 12.5248 40.4466C11.9571 40.8418 11.3735 41.0754 10.7739 41.1476C10.1695 41.2129 9.60722 41.1272 9.08695 40.8903C8.55507 40.6513 8.11773 40.2856 7.77494 39.7932ZM9.32449 35.8055C8.93465 36.0769 8.65323 36.3946 8.48024 36.7587C8.30249 37.116 8.22884 37.4769 8.25929 37.8416C8.28974 38.2062 8.40971 38.539 8.61919 38.8399C8.82868 39.1409 9.09911 39.3689 9.4305 39.5241C9.75504 39.684 10.1181 39.746 10.5196 39.7102C10.9095 39.6723 11.2994 39.5177 11.6892 39.2463C12.0791 38.9749 12.3663 38.6582 12.5509 38.2962C12.7307 37.9273 12.8088 37.5582 12.7852 37.1888C12.75 36.8173 12.63 36.4845 12.4253 36.1904C12.2158 35.8895 11.9454 35.6615 11.614 35.5063C11.2826 35.3511 10.9186 35.2949 10.5218 35.3376C10.1134 35.3781 9.71434 35.5341 9.32449 35.8055Z" fill="#53301F"/>
<path d="M18.8153 40.3008C19.4082 40.5674 19.8842 40.9413 20.2433 41.4227C20.5991 41.9116 20.8044 42.4608 20.8593 43.0702C20.9107 43.6873 20.7912 44.3188 20.5007 44.9648C20.2136 45.6033 19.8184 46.1062 19.315 46.4738C18.8116 46.8413 18.2569 47.0488 17.6509 47.096C17.0449 47.1433 16.4416 47.0319 15.8412 46.7619C15.2408 46.4919 14.7572 46.1145 14.3904 45.6298C14.0236 45.145 13.8107 44.5924 13.7517 43.9719C13.6926 43.3515 13.8066 42.722 14.0937 42.0836C14.3808 41.4452 14.7799 40.9439 15.2908 40.5798C15.8018 40.2156 16.3696 40.0096 16.9943 39.9615C17.6079 39.9177 18.2149 40.0308 18.8153 40.3008ZM18.3078 41.4294C17.9734 41.279 17.6259 41.2187 17.2653 41.2484C16.8971 41.2747 16.5501 41.4065 16.2241 41.6436C15.8982 41.8808 15.6326 42.2274 15.4276 42.6834C15.2225 43.1394 15.1373 43.5626 15.172 43.9528C15.2032 44.3506 15.3274 44.6942 15.5444 44.9837C15.7614 45.2732 16.0372 45.4931 16.3716 45.6435C16.706 45.7939 17.0535 45.8542 17.4141 45.8245C17.767 45.7914 18.0989 45.6528 18.4097 45.4088C18.717 45.1724 18.9732 44.8261 19.1783 44.3701C19.4825 43.6937 19.5473 43.0924 19.3727 42.5662C19.1872 42.0442 18.8322 41.6652 18.3078 41.4294Z" fill="#53301F"/>
<path d="M25.6288 42.9946L22.6944 43.1287L22.6419 41.9799L26.9998 41.7808L27.3964 50.4592L25.9729 50.5243L25.6288 42.9946Z" fill="#53301F"/>
<path d="M31.2623 46.1883L30.6895 45.1338L35.2039 42.6815L35.7767 43.7359L31.2623 46.1883Z" fill="#53301F"/>
<path d="M42.8864 39.7066L40.7771 38.2737L39.0912 40.7552L38.1296 40.1019L39.8155 37.6204L37.6132 36.1242L35.7166 38.9159L34.755 38.2626L37.4523 34.2922L44.6487 39.1812L41.9514 43.1516L40.9898 42.4983L42.8864 39.7066Z" fill="#53301F"/>
<path d="M43.4371 33.4177L42.2458 33.2737L42.8624 28.1733L44.0537 28.3173L43.4371 33.4177Z" fill="#53301F"/>
<path d="M41.3946 22.5372L39.3181 26.7307L38.6305 24.9327L40.4866 21.4927L37.7196 22.551L37.2105 21.22L45.8502 17.9157L46.3592 19.2467L41.3389 21.1667L45.0457 22.4257L45.7512 24.2704L41.3946 22.5372Z" fill="#53301F"/>
<path d="M34.3053 17.9047C33.8097 17.4842 33.456 16.9929 33.2444 16.4308C33.0382 15.8624 32.9932 15.2778 33.1095 14.6771C33.2312 14.0699 33.5211 13.4963 33.9794 12.9562C34.4323 12.4224 34.9515 12.0488 35.537 11.8352C36.1226 11.6217 36.713 11.5762 37.3084 11.6988C37.9038 11.8215 38.4525 12.0958 38.9545 12.5217C39.4565 12.9476 39.8165 13.4443 40.0344 14.0117C40.2524 14.5792 40.3038 15.1691 40.1884 15.7817C40.0731 16.3942 39.789 16.9673 39.3361 17.5011C38.8833 18.0348 38.3609 18.4058 37.769 18.614C37.1771 18.8221 36.5744 18.8627 35.9609 18.7356C35.3592 18.6076 34.8073 18.3306 34.3053 17.9047ZM35.1059 16.9611C35.3855 17.1983 35.7027 17.3526 36.0574 17.424C36.4184 17.5009 36.7884 17.4705 37.1673 17.333C37.5463 17.1955 37.8975 16.9362 38.221 16.5549C38.5444 16.1736 38.7436 15.7907 38.8185 15.4062C38.8988 15.0153 38.8748 14.6507 38.7466 14.3124C38.6183 13.9741 38.4144 13.6863 38.1348 13.4491C37.8552 13.2119 37.5381 13.0576 37.1834 12.9862C36.8351 12.9201 36.4778 12.9612 36.1115 13.1095C35.7507 13.2514 35.4085 13.513 35.0851 13.8943C34.6052 14.4598 34.3762 15.0196 34.398 15.5735C34.4315 16.1266 34.6675 16.5891 35.1059 16.9611Z" fill="#53301F"/>
<path d="M27.9485 14.5815C27.3085 14.4678 26.7556 14.2214 26.2897 13.8424C25.8253 13.4552 25.492 12.9728 25.29 12.3952C25.0894 11.8094 25.051 11.1678 25.1749 10.4704C25.2974 9.78119 25.5578 9.1969 25.9561 8.71753C26.3545 8.23816 26.8417 7.90155 27.4179 7.70768C27.994 7.51382 28.6062 7.47448 29.2543 7.58965C29.9025 7.70483 30.4636 7.95265 30.9377 8.33313C31.4118 8.7136 31.7533 9.19747 31.9621 9.78472C32.1709 10.372 32.2141 11.0102 32.0916 11.6994C31.9691 12.3886 31.7046 12.9722 31.2981 13.4501C30.8915 13.928 30.3913 14.2665 29.7972 14.4657C29.2129 14.6581 28.5966 14.6967 27.9485 14.5815ZM28.165 13.3631C28.526 13.4273 28.8777 13.4009 29.2201 13.284C29.5707 13.1685 29.8751 12.956 30.1332 12.6464C30.3914 12.3368 30.5642 11.9358 30.6516 11.4435C30.7391 10.9513 30.7184 10.5202 30.5895 10.1502C30.462 9.77209 30.2577 9.46917 29.9765 9.24147C29.6953 9.01377 29.3742 8.86784 29.0132 8.80369C28.6522 8.73955 28.3005 8.76592 27.9581 8.88282C27.6239 9.00118 27.3359 9.21662 27.0942 9.52915C26.8539 9.83347 26.69 10.2318 26.6026 10.7241C26.4728 11.4543 26.5568 12.0532 26.8546 12.5209C27.1621 12.9818 27.5988 13.2625 28.165 13.3631Z" fill="#53301F"/>
<path d="M20.8507 10.0192C21.3177 9.93778 21.7738 10.0332 22.2189 10.3056C22.6641 10.578 22.9751 10.957 23.152 11.4424C23.3032 11.8574 23.3305 12.2731 23.234 12.6897C23.1424 13.0956 22.9287 13.4706 22.5928 13.8147C22.2542 14.1509 21.8147 14.4175 21.2745 14.6143L18.0094 15.804L15.0353 7.64147L18.1476 6.50744C18.7035 6.30488 19.2154 6.22481 19.6832 6.26723C20.151 6.30965 20.5451 6.45428 20.8657 6.70112C21.1834 6.94014 21.4135 7.25539 21.5562 7.64688C21.7273 8.11666 21.7447 8.5538 21.6083 8.95828C21.4718 9.36277 21.2193 9.71642 20.8507 10.0192ZM17.6237 10.5831L19.2797 9.97968C19.7182 9.81991 20.0231 9.59794 20.1945 9.31375C20.3709 9.01889 20.3906 8.68354 20.2537 8.30771C20.1196 7.93971 19.8902 7.69957 19.5655 7.58729C19.2457 7.46433 18.8666 7.48273 18.4281 7.64249L16.7721 8.24588L17.6237 10.5831ZM20.759 13.5649C21.2131 13.3994 21.5295 13.16 21.708 12.8466C21.8865 12.5332 21.9044 12.1808 21.7617 11.7893C21.6162 11.39 21.3637 11.1228 21.0041 10.9878C20.6444 10.8527 20.2375 10.8679 19.7834 11.0334L18.0217 11.6753L18.9503 14.2239L20.759 13.5649Z" fill="#53301F"/>
</svg>
