<svg width="53" height="56" viewBox="0 0 53 56" fill="none" xmlns="http://www.w3.org/2000/svg">
<path d="M7.77503 39.7932C7.47033 39.3554 7.29024 38.9071 7.23478 38.4482C7.16771 37.9872 7.19747 37.5705 7.32406 37.1981L6.50333 37.7694L5.68206 36.5896L11.4271 32.5904C11.9469 32.2285 12.4848 32.0166 13.0407 31.9545C13.6034 31.8877 14.1462 31.982 14.6692 32.2373C15.1874 32.4858 15.6464 32.8973 16.0464 33.4718C16.5796 34.2379 16.8411 35.0001 16.8309 35.7585C16.8276 36.5122 16.542 37.1375 15.974 37.6344L15.1671 36.4751C15.3993 36.1815 15.5043 35.8291 15.4821 35.4181C15.4621 34.9955 15.3116 34.5824 15.0307 34.1788C14.7022 33.7069 14.2943 33.4273 13.8071 33.34C13.3151 33.2459 12.7956 33.3893 12.2484 33.7702L11.3046 34.4272C11.7094 34.4398 12.1232 34.5529 12.5459 34.7663C12.957 34.9776 13.3125 35.2988 13.6125 35.7296C13.9552 36.2221 14.1464 36.7592 14.1858 37.3409C14.2136 37.9206 14.0886 38.4849 13.8107 39.0337C13.5212 39.5805 13.0926 40.0515 12.5249 40.4466C11.9572 40.8418 11.3736 41.0754 10.774 41.1476C10.1696 41.2129 9.60731 41.1272 9.08704 40.8903C8.55516 40.6513 8.11782 40.2856 7.77503 39.7932ZM9.32458 35.8055C8.93474 36.0769 8.65332 36.3946 8.48033 36.7587C8.30258 37.116 8.22893 37.4769 8.25938 37.8416C8.28983 38.2062 8.4098 38.539 8.61928 38.8399C8.82877 39.1409 9.0992 39.3689 9.43059 39.5241C9.75513 39.684 10.1182 39.746 10.5197 39.7102C10.9096 39.6723 11.2995 39.5177 11.6893 39.2463C12.0792 38.9749 12.3664 38.6582 12.551 38.2962C12.7308 37.9273 12.8089 37.5582 12.7853 37.1888C12.7501 36.8173 12.6301 36.4845 12.4254 36.1904C12.2159 35.8895 11.9455 35.6615 11.6141 35.5063C11.2827 35.3511 10.9186 35.2949 10.5219 35.3376C10.1135 35.3781 9.71443 35.5341 9.32458 35.8055Z" fill="#FFF8E3"/>
<path d="M18.8154 40.3009C19.4082 40.5675 19.8842 40.9414 20.2434 41.4228C20.5992 41.9117 20.8045 42.4609 20.8594 43.0704C20.9108 43.6874 20.7913 44.3189 20.5008 44.965C20.2137 45.6034 19.8185 46.1064 19.3151 46.4739C18.8117 46.8415 18.257 47.0489 17.651 47.0961C17.045 47.1434 16.4417 47.032 15.8413 46.762C15.2409 46.492 14.7573 46.1146 14.3905 45.6299C14.0237 45.1451 13.8108 44.5925 13.7518 43.9721C13.6927 43.3516 13.8067 42.7221 14.0938 42.0837C14.3809 41.4453 14.78 40.944 15.2909 40.5799C15.8019 40.2158 16.3697 40.0097 16.9944 39.9617C17.608 39.9178 18.215 40.0309 18.8154 40.3009ZM18.3079 41.4295C17.9735 41.2791 17.626 41.2188 17.2654 41.2485C16.8972 41.2748 16.5502 41.4066 16.2242 41.6438C15.8982 41.881 15.6327 42.2275 15.4277 42.6836C15.2226 43.1396 15.1374 43.5627 15.1721 43.9529C15.2033 44.3507 15.3275 44.6944 15.5445 44.9839C15.7615 45.2733 16.0373 45.4933 16.3717 45.6437C16.7061 45.794 17.0536 45.8544 17.4141 45.8246C17.7671 45.7915 18.099 45.6529 18.4097 45.4089C18.7171 45.1725 18.9733 44.8263 19.1784 44.3703C19.4825 43.6938 19.5474 43.0925 19.3728 42.5663C19.1873 42.0443 18.8323 41.6654 18.3079 41.4295Z" fill="#FFF8E3"/>
<path d="M25.6289 42.9946L22.6944 43.1287L22.6419 41.9799L26.9999 41.7808L27.3965 50.4592L25.9729 50.5243L25.6289 42.9946Z" fill="#FFF8E3"/>
<path d="M31.2624 46.1884L30.6896 45.134L35.204 42.6816L35.7768 43.736L31.2624 46.1884Z" fill="#FFF8E3"/>
<path d="M42.8864 39.7067L40.7771 38.2738L39.0913 40.7553L38.1297 40.102L39.8156 37.6205L37.6132 36.1243L35.7166 38.916L34.755 38.2628L37.4524 34.2923L44.6488 39.1813L41.9514 43.1517L40.9898 42.4985L42.8864 39.7067Z" fill="#FFF8E3"/>
<path d="M43.437 33.4177L42.2457 33.2737L42.8624 28.1733L44.0537 28.3173L43.437 33.4177Z" fill="#FFF8E3"/>
<path d="M41.3947 22.5371L39.3181 26.7306L38.6305 24.9326L40.4866 21.4926L37.7196 22.5508L37.2105 21.2199L45.8502 17.9156L46.3593 19.2466L41.3389 21.1666L45.0457 22.4255L45.7512 24.2702L41.3947 22.5371Z" fill="#FFF8E3"/>
<path d="M34.3052 17.9047C33.8096 17.4842 33.456 16.9929 33.2443 16.4308C33.0381 15.8624 32.9931 15.2778 33.1094 14.6771C33.2311 14.0699 33.5211 13.4963 33.9793 12.9562C34.4322 12.4224 34.9514 12.0488 35.5369 11.8352C36.1225 11.6217 36.713 11.5762 37.3083 11.6988C37.9037 11.8215 38.4524 12.0958 38.9544 12.5217C39.4564 12.9476 39.8164 13.4443 40.0344 14.0117C40.2523 14.5792 40.3037 15.1691 40.1883 15.7817C40.073 16.3942 39.7889 16.9673 39.3361 17.5011C38.8832 18.0348 38.3608 18.4058 37.7689 18.614C37.177 18.8221 36.5743 18.8627 35.9608 18.7356C35.3591 18.6076 34.8072 18.3306 34.3052 17.9047ZM35.1058 16.9611C35.3854 17.1983 35.7026 17.3526 36.0573 17.424C36.4183 17.5009 36.7883 17.4705 37.1672 17.333C37.5462 17.1955 37.8974 16.9362 38.2209 16.5549C38.5443 16.1736 38.7435 15.7907 38.8184 15.4062C38.8987 15.0153 38.8747 14.6507 38.7465 14.3124C38.6182 13.9741 38.4143 13.6863 38.1347 13.4491C37.8551 13.2119 37.538 13.0576 37.1833 12.9862C36.835 12.9201 36.4777 12.9612 36.1115 13.1095C35.7506 13.2514 35.4085 13.513 35.085 13.8943C34.6051 14.4598 34.3761 15.0196 34.3979 15.5735C34.4314 16.1266 34.6674 16.5891 35.1058 16.9611Z" fill="#FFF8E3"/>
<path d="M27.9485 14.5815C27.3086 14.4678 26.7556 14.2214 26.2898 13.8424C25.8253 13.4552 25.4921 12.9728 25.29 12.3952C25.0894 11.8094 25.0511 11.1678 25.175 10.4704C25.2975 9.78119 25.5579 9.1969 25.9562 8.71753C26.3545 8.23816 26.8418 7.90155 27.4179 7.70768C27.9941 7.51382 28.6062 7.47448 29.2544 7.58965C29.9026 7.70483 30.4637 7.95265 30.9378 8.33313C31.4119 8.7136 31.7533 9.19747 31.9621 9.78472C32.1709 10.372 32.2141 11.0102 32.0917 11.6994C31.9692 12.3886 31.7047 12.9722 31.2981 13.4501C30.8916 13.928 30.3913 14.2665 29.7973 14.4657C29.213 14.6581 28.5967 14.6967 27.9485 14.5815ZM28.165 13.3631C28.526 13.4273 28.8777 13.4009 29.2201 13.284C29.5708 13.1685 29.8751 12.956 30.1333 12.6464C30.3914 12.3368 30.5642 11.9358 30.6517 11.4435C30.7392 10.9513 30.7185 10.5202 30.5895 10.1502C30.462 9.77209 30.2577 9.46917 29.9765 9.24147C29.6954 9.01377 29.3743 8.86784 29.0133 8.80369C28.6523 8.73955 28.3006 8.76592 27.9582 8.88282C27.624 9.00118 27.336 9.21662 27.0943 9.52915C26.854 9.83347 26.6901 10.2318 26.6026 10.7241C26.4729 11.4543 26.5569 12.0532 26.8547 12.5209C27.1621 12.9818 27.5989 13.2625 28.165 13.3631Z" fill="#FFF8E3"/>
<path d="M20.8508 10.0192C21.3178 9.93778 21.7738 10.0332 22.219 10.3056C22.6642 10.578 22.9752 10.957 23.1521 11.4424C23.3033 11.8574 23.3306 12.2731 23.234 12.6897C23.1424 13.0956 22.9287 13.4706 22.5929 13.8147C22.2542 14.1509 21.8148 14.4175 21.2745 14.6143L18.0095 15.804L15.0353 7.64147L18.1477 6.50744C18.7036 6.30488 19.2154 6.22481 19.6832 6.26723C20.151 6.30965 20.5452 6.45428 20.8657 6.70112C21.1834 6.94014 21.4136 7.25539 21.5562 7.64688C21.7274 8.11666 21.7448 8.5538 21.6083 8.95828C21.4719 9.36277 21.2194 9.71642 20.8508 10.0192ZM17.6238 10.5831L19.2798 9.97968C19.7183 9.81991 20.0232 9.59794 20.1946 9.31375C20.371 9.01889 20.3907 8.68354 20.2538 8.30771C20.1197 7.93971 19.8903 7.69957 19.5655 7.58729C19.2458 7.46433 18.8667 7.48273 18.4282 7.64249L16.7722 8.24588L17.6238 10.5831ZM20.7591 13.5649C21.2132 13.3994 21.5295 13.16 21.708 12.8466C21.8865 12.5332 21.9045 12.1808 21.7618 11.7893C21.6163 11.39 21.3637 11.1228 21.0041 10.9878C20.6445 10.8527 20.2376 10.8679 19.7835 11.0334L18.0218 11.6753L18.9504 14.2239L20.7591 13.5649Z" fill="#FFF8E3"/>
</svg>
