<svg width="71" height="71" viewBox="0 0 71 71" fill="none" xmlns="http://www.w3.org/2000/svg">
<path d="M0 35.5C0 15.8931 15.8931 0 35.5 0C55.1069 0 71 15.8931 71 35.5C71 55.1069 55.1069 71 35.5 71C15.8931 71 0 55.1069 0 35.5ZM35.5 20.0256C34.7758 20.0256 34.0812 20.3133 33.5691 20.8255C33.0569 21.3376 32.7692 22.0322 32.7692 22.7564V32.7692H22.7564C22.0322 32.7692 21.3376 33.0569 20.8255 33.5691C20.3133 34.0812 20.0256 34.7758 20.0256 35.5C20.0256 36.2242 20.3133 36.9188 20.8255 37.4309C21.3376 37.9431 22.0322 38.2308 22.7564 38.2308H32.7692V48.2436C32.7692 48.9678 33.0569 49.6624 33.5691 50.1745C34.0812 50.6867 34.7758 50.9744 35.5 50.9744C36.2242 50.9744 36.9188 50.6867 37.4309 50.1745C37.9431 49.6624 38.2308 48.9678 38.2308 48.2436V38.2308H48.2436C48.9678 38.2308 49.6624 37.9431 50.1745 37.4309C50.6867 36.9188 50.9744 36.2242 50.9744 35.5C50.9744 34.7758 50.6867 34.0812 50.1745 33.5691C49.6624 33.0569 48.9678 32.7692 48.2436 32.7692H38.2308V22.7564C38.2308 22.0322 37.9431 21.3376 37.4309 20.8255C36.9188 20.3133 36.2242 20.0256 35.5 20.0256Z" fill="#19191B"/>
</svg>
