<svg width="15" height="14" viewBox="0 0 15 14" fill="none" xmlns="http://www.w3.org/2000/svg">
<path d="M6.39507 11.2444C7.67904 11.2444 8.86305 10.851 9.8318 10.1954L13.4761 13.6482C13.6453 13.8085 13.8682 13.8886 14.1066 13.8886C14.6063 13.8886 14.96 13.5244 14.96 13.0582C14.96 12.8396 14.8831 12.6284 14.7139 12.4754L11.0927 9.0372C11.8539 8.09023 12.3075 6.91745 12.3075 5.64269C12.3075 2.5614 9.64727 0.0410156 6.39507 0.0410156C3.15055 0.0410156 0.482666 2.55412 0.482666 5.64269C0.482666 8.72397 3.14286 11.2444 6.39507 11.2444ZM6.39507 10.0352C3.85789 10.0352 1.75895 8.04653 1.75895 5.64269C1.75895 3.23885 3.85789 1.25022 6.39507 1.25022C8.93225 1.25022 11.0312 3.23885 11.0312 5.64269C11.0312 8.04653 8.93225 10.0352 6.39507 10.0352Z" fill="#C4C4C4"/>
</svg>
