<svg width="38" height="39" viewBox="0 0 38 39" fill="none" xmlns="http://www.w3.org/2000/svg">
<path d="M18.9951 0.972168C8.50712 0.972168 -0.00488281 9.48417 -0.00488281 19.9722C-0.00488281 30.4602 8.50712 38.9722 18.9951 38.9722C29.4831 38.9722 37.9951 30.4602 37.9951 19.9722C37.9951 9.48417 29.4831 0.972168 18.9951 0.972168ZM18.9951 8.57217C22.6621 8.57217 25.6451 11.5552 25.6451 15.2222C25.6451 18.8892 22.6621 21.8722 18.9951 21.8722C15.3281 21.8722 12.3451 18.8892 12.3451 15.2222C12.3451 11.5552 15.3281 8.57217 18.9951 8.57217ZM18.9951 35.1722C15.1381 35.1722 10.5781 33.6142 7.32912 29.7002C10.6576 27.09 14.7653 25.6714 18.9951 25.6714C23.225 25.6714 27.3327 27.09 30.6611 29.7002C27.4121 33.6142 22.8521 35.1722 18.9951 35.1722Z" fill="#F3F3F3"/>
</svg>
